<svg xmlns="http://www.w3.org/2000/svg" width="490" height="30" viewBox="0 0 490 30" fill="none">
<path d="M22.5487 8.58285L15.686 24.4652H15.276L8.3865 8.58285C7.41502 6.3636 7.2635 5.8734 4.66992 5.8734V5.21387H13.3152V5.8734C10.7216 5.8734 10.1334 6.52403 10.882 8.24417L16.1851 20.3832L21.4257 8.24417C22.1744 6.55968 21.5861 5.8734 18.9926 5.8734V5.21387H26.2653V5.8734C23.6717 5.8734 23.5202 6.37251 22.5487 8.58285Z" fill="#440A56"></path>
<path d="M40.775 24.4658C35.062 24.4658 30.3828 20.0005 30.3828 14.5727C30.3828 9.14493 35.062 4.67969 40.775 4.67969C46.488 4.67969 51.1939 9.13602 51.1939 14.5727C51.1939 20.0095 46.5147 24.4658 40.775 24.4658ZM33.3507 14.5727C33.3507 18.4408 35.4096 23.218 40.775 23.218C46.1404 23.218 48.2349 18.4408 48.2349 14.5727C48.2349 10.7046 46.176 5.90072 40.775 5.90072C35.3739 5.90072 33.3507 10.7046 33.3507 14.5727Z" fill="#440A56"></path>
<path d="M60.1698 24.4659H59.5459V17.6032H60.1698C60.1698 17.6032 60.2322 23.2182 65.9452 23.2182C68.1644 23.2182 69.8489 21.7832 69.8489 19.7868C69.8489 18.3518 68.414 17.1308 66.2571 16.0078L63.2625 14.4838C61.4532 13.5479 59.7955 11.703 59.7955 9.33224C59.7955 6.73866 61.9523 4.68875 64.9737 4.68875C66.8097 4.68875 67.8436 5.2859 68.7794 5.96326C69.1537 5.65131 69.5281 5.17894 69.6885 4.52832H70.3124V11.3911H69.6618C69.439 8.89552 68.5031 5.92761 64.8846 5.92761C63.1377 5.92761 61.8543 7.14864 61.8543 8.70836C61.8543 10.2681 62.9505 11.1772 65.6332 12.5764L68.6279 14.1005C71.0343 15.3215 71.8721 17.1308 71.8721 18.842C71.8721 22.2467 69.1627 24.457 65.9452 24.457C63.5744 24.457 62.0771 23.2092 61.0789 22.9864C60.7045 23.2984 60.3302 23.7707 60.1698 24.457V24.4659Z" fill="#440A56"></path>
<path d="M92.6966 16.7328V16.1089H100.869V16.7328C98.2759 16.7328 97.9016 17.2586 97.9016 20.387V22.7577C94.4346 22.7577 93.0353 24.3798 89.7911 24.3798C84.5148 24.3798 80.21 19.9146 80.21 14.4868C80.21 9.05899 84.5148 4.59375 89.7911 4.59375C91.9747 4.59375 94.0068 5.55632 95.5932 7.24081C96.0032 6.92887 96.5023 6.24259 96.6538 5.45828H97.2777V12.321H96.6538C95.816 8.26576 93.374 5.79696 89.8802 5.79696C84.8891 5.79696 83.0798 10.6009 83.0798 14.469C83.0798 18.3371 84.7019 23.0162 90.4773 23.0162C93.1957 23.0162 95.6289 21.5545 95.6289 18.747C95.6289 17.4012 94.8445 16.715 92.6966 16.715V16.7328Z" fill="#440A56"></path>
<path d="M105.811 23.2798C108.404 23.2798 108.778 22.7451 108.778 19.6256V9.49194C108.778 6.37251 108.404 5.8734 105.811 5.8734V5.21387H120.035L120.311 9.33151H119.652L119.5 8.70763C119.064 7.08553 118.752 6.37251 115.882 6.37251H111.265V13.4581H112.825C115.944 13.4581 116.443 13.0837 116.443 10.4634H117.094V17.6114H116.443C116.443 14.9911 115.944 14.6167 112.825 14.6167H111.265V19.1711C111.265 22.2905 111.639 22.7896 114.233 22.7896H116.916C119.786 22.7896 120.133 22.0766 120.534 20.4189L120.686 19.795H121.345L121.096 23.9483H105.811V23.2976V23.2798Z" fill="#440A56"></path>
<path d="M129.608 24.4659H128.984V17.6032H129.608C129.608 17.6032 129.671 23.2182 135.384 23.2182C137.603 23.2182 139.287 21.7832 139.287 19.7868C139.287 18.3518 137.852 17.1308 135.696 16.0078L132.701 14.4838C130.892 13.5479 129.234 11.703 129.234 9.33224C129.234 6.73866 131.391 4.68875 134.412 4.68875C136.248 4.68875 137.282 5.2859 138.218 5.96326C138.592 5.65131 138.967 5.17894 139.127 4.52832H139.751V11.3911H139.1C138.877 8.89552 137.942 5.92761 134.323 5.92761C132.576 5.92761 131.293 7.14864 131.293 8.70836C131.293 10.2681 132.389 11.1772 135.072 12.5764L138.066 14.1005C140.473 15.3215 141.311 17.1308 141.311 18.842C141.311 22.2467 138.601 24.457 135.384 24.457C133.013 24.457 131.516 23.2092 130.517 22.9864C130.143 23.2984 129.769 23.7707 129.608 24.457V24.4659Z" fill="#440A56"></path>
<path d="M165.357 19.6345C165.357 22.754 165.731 23.2887 168.325 23.2887V23.9394H159.902V23.2887C162.496 23.2887 162.87 22.754 162.87 19.6345V9.49194C162.87 6.37251 162.496 5.8734 159.902 5.8734V5.21387H168.325V5.8734C165.731 5.8734 165.357 6.37251 165.357 9.49194V13.4224H175.963V9.49194C175.963 6.37251 175.553 5.8734 172.968 5.8734V5.21387H181.426V5.8734C178.806 5.8734 178.432 6.37251 178.432 9.49194V19.6345C178.432 22.754 178.806 23.2887 181.426 23.2887V23.9394H172.968V23.2887C175.562 23.2887 175.963 22.754 175.963 19.6345V14.5811H165.357V19.6345Z" fill="#440A56"></path>
<path d="M190.624 20.9096C189.875 22.5941 190.473 23.2804 193.057 23.2804V23.931H185.758V23.2804C188.378 23.2804 188.539 22.7456 189.501 20.562L196.364 4.67969H196.774L203.672 20.562C204.635 22.7456 204.795 23.2804 207.389 23.2804V23.931H198.744V23.2804C201.337 23.2804 201.925 22.6209 201.177 20.9096L199.679 17.4515H192.13L190.633 20.9096H190.624ZM195.865 8.7706L192.621 16.2929H199.145L195.865 8.7706Z" fill="#440A56"></path>
<path d="M223.636 5.8734V5.21387H230.935V5.8734C228.342 5.8734 227.941 6.37251 227.941 9.49194V16.9786C227.941 21.8805 224.572 24.4652 220.418 24.4652C216.265 24.4652 212.932 21.8716 212.932 16.9786V9.49194C212.932 6.37251 212.557 5.8734 209.964 5.8734V5.21387H218.386V5.8734C215.793 5.8734 215.418 6.37251 215.418 9.49194V17.139C215.418 21.1943 217.754 23.0659 220.882 23.0659C224.153 23.0659 226.622 21.1943 226.622 17.139V9.49194C226.622 6.37251 226.212 5.8734 223.627 5.8734H223.636Z" fill="#440A56"></path>
<path d="M255.704 9.42955H255.044L254.893 8.80567C254.456 7.14791 254.144 6.4349 251.274 6.4349H247.192V19.6345C247.192 22.754 247.602 23.2887 250.187 23.2887V23.9394H241.729V23.2887C244.322 23.2887 244.723 22.754 244.723 19.6345V6.4349H240.642C237.772 6.4349 237.46 7.14791 237.023 8.80567L236.863 9.42955H236.212L236.488 5.21387H255.428L255.704 9.42955Z" fill="#440A56"></path>
<path d="M262.914 18.2261V16.8535H272.023V18.2261H262.914Z" fill="#440A56"></path>
<path d="M297.628 23.5923C297.468 22.8437 296.969 22.095 296.568 21.8098C294.972 23.4676 292.949 24.4658 290.766 24.4658C285.489 24.4658 281.185 20.0005 281.185 14.5727C281.185 9.14493 285.489 4.67969 290.766 4.67969C292.949 4.67969 294.981 5.64225 296.568 7.32675C296.978 7.0148 297.468 6.32853 297.628 5.54421H298.252V12.407H297.628C296.755 8.3517 294.349 5.8829 290.89 5.8829C285.899 5.8829 284.09 10.6868 284.09 14.5549C284.09 18.423 285.899 23.2002 290.89 23.2002C294.357 23.2002 296.755 20.7046 297.628 16.7118H298.252V23.5745H297.628V23.5923Z" fill="#440A56"></path>
<path d="M311.569 19.6345C311.569 22.754 311.943 23.2887 314.537 23.2887V23.9394H306.114V23.2887C308.708 23.2887 309.082 22.754 309.082 19.6345V9.49194C309.082 6.37251 308.708 5.8734 306.114 5.8734V5.21387H314.537V5.8734C311.943 5.8734 311.569 6.37251 311.569 9.49194V13.4224H322.175V9.49194C322.175 6.37251 321.765 5.8734 319.18 5.8734V5.21387H327.638V5.8734C325.018 5.8734 324.644 6.37251 324.644 9.49194V19.6345C324.644 22.754 325.018 23.2887 327.638 23.2887V23.9394H319.18V23.2887C321.774 23.2887 322.175 22.754 322.175 19.6345V14.5811H311.569V19.6345Z" fill="#440A56"></path>
<path d="M345.767 24.4658C340.054 24.4658 335.375 20.0005 335.375 14.5727C335.375 9.14493 340.054 4.67969 345.767 4.67969C351.48 4.67969 356.186 9.13602 356.186 14.5727C356.186 20.0095 351.506 24.4658 345.767 24.4658ZM338.342 14.5727C338.342 18.4408 340.401 23.218 345.767 23.218C351.132 23.218 353.227 18.4408 353.227 14.5727C353.227 10.7046 351.168 5.90072 345.767 5.90072C340.366 5.90072 338.342 10.7046 338.342 14.5727Z" fill="#440A56"></path>
<path d="M381.391 23.5923C381.23 22.8437 380.731 22.095 380.33 21.8098C378.735 23.4676 376.711 24.4658 374.528 24.4658C369.252 24.4658 364.947 20.0005 364.947 14.5727C364.947 9.14493 369.252 4.67969 374.528 4.67969C376.711 4.67969 378.744 5.64225 380.33 7.32675C380.74 7.0148 381.23 6.32853 381.391 5.54421H382.015V12.407H381.391C380.517 8.3517 378.111 5.8829 374.653 5.8829C369.662 5.8829 367.852 10.6868 367.852 14.5549C367.852 18.423 369.662 23.2002 374.653 23.2002C378.12 23.2002 380.517 20.7046 381.391 16.7118H382.015V23.5745H381.391V23.5923Z" fill="#440A56"></path>
<path d="M401.293 24.4658C395.58 24.4658 390.9 20.0005 390.9 14.5727C390.9 9.14493 395.58 4.67969 401.293 4.67969C407.006 4.67969 411.711 9.13602 411.711 14.5727C411.711 20.0095 407.032 24.4658 401.293 24.4658ZM393.868 14.5727C393.868 18.4408 395.927 23.218 401.293 23.218C406.658 23.218 408.752 18.4408 408.752 14.5727C408.752 10.7046 406.694 5.90072 401.293 5.90072C395.891 5.90072 393.868 10.7046 393.868 14.5727Z" fill="#440A56"></path>
<path d="M419.438 23.2798C422.032 23.2798 422.406 22.7451 422.406 19.6256V9.49194C422.406 6.37251 422.032 5.8734 419.438 5.8734V5.21387H427.861V5.8734C425.267 5.8734 424.893 6.37251 424.893 9.49194V19.1622C424.893 22.2816 425.267 22.7807 427.861 22.7807H431.604C434.447 22.7807 434.786 22.0677 435.196 20.4099L435.348 19.7861H436.007L435.758 23.9394H419.438V23.2887V23.2798Z" fill="#440A56"></path>
<path d="M444.243 20.9096C443.494 22.5941 444.082 23.2804 446.676 23.2804V23.931H439.376V23.2804C441.997 23.2804 442.157 22.7456 443.12 20.562L449.983 4.67969H450.392L457.291 20.562C458.253 22.7456 458.414 23.2804 461.007 23.2804V23.931H452.362V23.2804C454.956 23.2804 455.544 22.6209 454.795 20.9096L453.298 17.4515H445.749L444.252 20.9096H444.243ZM449.483 8.7706L446.239 16.2929H452.763L449.483 8.7706Z" fill="#440A56"></path>
<path d="M482.362 9.42955H481.703L481.551 8.80567C481.114 7.14791 480.802 6.4349 477.932 6.4349H473.85V19.6345C473.85 22.754 474.26 23.2887 476.845 23.2887V23.9394H468.387V23.2887C470.981 23.2887 471.382 22.754 471.382 19.6345V6.4349H467.3C464.43 6.4349 464.118 7.14791 463.681 8.80567L463.521 9.42955H462.87L463.146 5.21387H482.086L482.371 9.42955H482.362Z" fill="#440A56"></path>
</svg>